<svg id="Capa_1" data-name="Capa 1" xmlns="http://www.w3.org/2000/svg" viewBox="0 0 512 512"><defs><style>.cls-1{fill:#d9132d;}</style></defs><path class="cls-1" d="M281.24,9.41c-102,0-184.69,82.69-184.69,184.69v.1h0c0,30,12.58,69,31.33,109.17,1.47,3.09,16.47,9.5,25.68,1.85,63.41-52.59,213-35.74,246.83-2,18.7,18.7-45.19,82.17-108.18,110-42.72,19-103.24-4.75-98.4,2.28,35.5,50.22,71.2,87,87.58,87C317.46,502.59,466,296.25,466,194.06c0-102-82.67-184.65-184.64-184.65h-.15ZM149.66,87.06a172.44,172.44,0,0,1,60.9-46.89h1.14a2.73,2.73,0,0,1,2.14,4.41A185.6,185.6,0,0,0,183,103a2.75,2.75,0,0,1-1.38,1.61,2.66,2.66,0,0,1-1.19,0,2.72,2.72,0,0,1-.9,0,178.73,178.73,0,0,1-29.1-13.34,2.85,2.85,0,0,1-1.28-1.85A2.79,2.79,0,0,1,149.66,87.06Zm-13.24,18.52a2.58,2.58,0,0,1,2.28-1.28,2.39,2.39,0,0,1,1.38.37,199.26,199.26,0,0,0,35.07,16.1,2.7,2.7,0,0,1,1.71,3.18,298.27,298.27,0,0,0-8,60.09,2.71,2.71,0,0,1-2.71,2.61h-52.4a2.76,2.76,0,0,1-2.71-2.8h0A170.83,170.83,0,0,1,136.42,105.58ZM138.7,286a2.62,2.62,0,0,1-2.28-1.28,170.87,170.87,0,0,1-25.11-78.18,2.76,2.76,0,0,1,2.47-2.8H166a2.71,2.71,0,0,1,2.71,2.61,298.46,298.46,0,0,0,8,60.1,2.7,2.7,0,0,1-1.71,3.18,198.5,198.5,0,0,0-35.07,16.09,2.76,2.76,0,0,1-1.19.33Zm134.09-36a2.75,2.75,0,0,1-2.65,2.71,328.8,328.8,0,0,0-73.53,10.2h-.67a2.66,2.66,0,0,1-2.65-2.09,281.76,281.76,0,0,1-7.46-54.54,3,3,0,0,1,.76-1.94,2.48,2.48,0,0,1,1.95-.86h81.55a2.81,2.81,0,0,1,2.7,2.71Zm0-66a2.8,2.8,0,0,1-2.7,2.71H188.54a2.76,2.76,0,0,1-1.95-.85,3,3,0,0,1-.76-2,285.61,285.61,0,0,1,7.46-54.59,2.7,2.7,0,0,1,2.65-2h.67a334.11,334.11,0,0,0,73.53,10,2.7,2.7,0,0,1,2.65,2.7Zm0-66a2.72,2.72,0,0,1-.85,1.94,2.58,2.58,0,0,1-1.85.76h0a317.67,317.67,0,0,1-68.54-9.49,2.79,2.79,0,0,1-1.71-1.33,2.84,2.84,0,0,1,0-2.18c15-44.53,41.15-74.81,69.63-81.46h.62a2.66,2.66,0,0,1,1.66.62,2.57,2.57,0,0,1,1,2.09Zm151-13.62a2.59,2.59,0,0,1,2.28,1.28,169.51,169.51,0,0,1,25.11,78.17,2.76,2.76,0,0,1-.71,2.05,2.89,2.89,0,0,1-2,.85H396.21A2.75,2.75,0,0,1,393.5,184,294.68,294.68,0,0,0,385.58,124a2.79,2.79,0,0,1,1.75-3.18,198.19,198.19,0,0,0,35-16.1A2.15,2.15,0,0,1,423.74,104.3ZM348.65,41a2.65,2.65,0,0,1,2.13-1h1.14a172.1,172.1,0,0,1,60.9,47.13,2.9,2.9,0,0,1,.62,2.19,2.57,2.57,0,0,1-1.33,1.85,177,177,0,0,1-29.05,13.34h-.9a2.61,2.61,0,0,1-1.19-.29,2.41,2.41,0,0,1-1.38-1.56,184.82,184.82,0,0,0-30.85-58.44A2.7,2.7,0,0,1,348.65,41Zm-59-12.2a2.76,2.76,0,0,1,1-2.08,2.8,2.8,0,0,1,1.71-.62H293c28.48,6.45,54.59,36.93,69.88,81.55a2.72,2.72,0,0,1-1.71,3.42h0a319.09,319.09,0,0,1-68.55,9.49h0a2.82,2.82,0,0,1-1.89-.76,2.76,2.76,0,0,1-.81-2Zm0,111.46a2.71,2.71,0,0,1,2.61-2.71,334.69,334.69,0,0,0,73.58-10.2h.66a2.71,2.71,0,0,1,1.38.38,2.49,2.49,0,0,1,1.23,1.71,274,274,0,0,1,7.45,54.53,2.47,2.47,0,0,1-.76,1.95,2.77,2.77,0,0,1-1.94.86H292.4a2.77,2.77,0,0,1-2.71-2.71Zm0,66a2.75,2.75,0,0,1,2.71-2.7h81.5a2.75,2.75,0,0,1,2.7,2.8,274.22,274.22,0,0,1-7.45,54.54,2.52,2.52,0,0,1-1.23,1.71,2.92,2.92,0,0,1-1.38.38h-.66a329.33,329.33,0,0,0-73.58-10.21,2.71,2.71,0,0,1-2.61-2.7ZM426,284.62a2.59,2.59,0,0,1-2.28,1.28,2.33,2.33,0,0,1-1.38-.38,198.52,198.52,0,0,0-35-16.09,2.78,2.78,0,0,1-1.75-3.18,298.37,298.37,0,0,0,8-60.09,2.71,2.71,0,0,1,2.71-2.61h52.21a2.85,2.85,0,0,1,2,.85,2.75,2.75,0,0,1,.72,2A169.57,169.57,0,0,1,426,284.62ZM191,305l135.14-1.66-100,88.34c-2,1.75-3.8,1-4-1.62l-2-23.11a175.7,175.7,0,0,1-91.52-3.18c-35.27-11.44-57.72-37.31-71.2-65.7a130.79,130.79,0,0,1,7.4-121c6.6-10.58,14.91-21.64,24.12-26.86a152.9,152.9,0,0,0-3.61,25c-1,1.9-2.47,6.79-3.42,8.73-13.24,26.78-16.19,70-4,94.94,14.91,30.14,42.72,45.8,69.83,51.41a145.43,145.43,0,0,0,57.58-2l-16.05-19.46C187.59,306.79,188.35,305.08,191,305Z"/></svg>