<svg id="Capa_1" data-name="Capa 1" xmlns="http://www.w3.org/2000/svg" viewBox="0 0 400 170"><defs><style>.cls-1,.cls-2,.cls-3{fill:#d90d2b;}.cls-2,.cls-3,.cls-4{isolation:isolate;font-size:57.12px;font-family:Nunito-Light, Nunito;font-weight:300;}.cls-3{letter-spacing:0.01em;}.cls-4{fill:#1d1d1b;}</style></defs><path class="cls-1" d="M64.28,33.07A38.91,38.91,0,0,0,25.37,72v0c0,6.32,2.65,14.53,6.6,23,.31.65,3.47,2,5.41.39,13.36-11.08,44.87-7.53,52-.42,3.94,3.94-9.52,17.31-22.79,23.18-9,4-21.75-1-20.73.48,7.48,10.58,15,18.34,18.45,18.34,7.6,0,38.9-43.47,38.9-65a38.9,38.9,0,0,0-38.9-38.9ZM36.56,49.43a36.31,36.31,0,0,1,12.83-9.88h.24a.56.56,0,0,1,.45.22.56.56,0,0,1,0,.71,39.08,39.08,0,0,0-6.5,12.3.58.58,0,0,1-.29.34.53.53,0,0,1-.25,0,.61.61,0,0,1-.19,0,37.69,37.69,0,0,1-6.13-2.81.6.6,0,0,1-.27-.39A.58.58,0,0,1,36.56,49.43Zm-2.79,3.9a.55.55,0,0,1,.48-.27.51.51,0,0,1,.29.08,41.83,41.83,0,0,0,7.39,3.39.57.57,0,0,1,.36.67,62.77,62.77,0,0,0-1.68,12.66.57.57,0,0,1-.57.55H29a.58.58,0,0,1-.57-.59v0A36,36,0,0,1,33.77,53.33Zm.48,38a.55.55,0,0,1-.48-.27,36,36,0,0,1-5.29-16.47A.58.58,0,0,1,29,74H40a.57.57,0,0,1,.57.55,62.77,62.77,0,0,0,1.68,12.66.57.57,0,0,1-.36.67,41.83,41.83,0,0,0-7.39,3.39.55.55,0,0,1-.25.07ZM62.5,83.75a.58.58,0,0,1-.56.57,69.25,69.25,0,0,0-15.49,2.15h-.14a.61.61,0,0,1-.3-.08.6.6,0,0,1-.26-.36,59.39,59.39,0,0,1-1.57-11.49.62.62,0,0,1,.16-.41.52.52,0,0,1,.41-.18H61.93a.59.59,0,0,1,.57.57Zm0-13.91a.59.59,0,0,1-.57.57H44.75a.58.58,0,0,1-.41-.18.62.62,0,0,1-.16-.41,60.17,60.17,0,0,1,1.57-11.5.57.57,0,0,1,.56-.43h.14A70.43,70.43,0,0,0,61.94,60a.57.57,0,0,1,.56.57Zm0-13.91a.58.58,0,0,1-.18.41.55.55,0,0,1-.39.16h0a67.07,67.07,0,0,1-14.44-2,.59.59,0,0,1-.36-.28.61.61,0,0,1,0-.46C50.29,44.38,55.8,38,61.8,36.6h.13a.56.56,0,0,1,.35.13.54.54,0,0,1,.22.44Zm31.8-2.87a.55.55,0,0,1,.48.27,35.7,35.7,0,0,1,5.29,16.47.57.57,0,0,1-.15.43.6.6,0,0,1-.42.18h-11a.58.58,0,0,1-.57-.55A62.06,62.06,0,0,0,86.26,57.2a.59.59,0,0,1,.37-.67A41.64,41.64,0,0,0,94,53.14.46.46,0,0,1,94.3,53.06ZM78.48,39.72a.56.56,0,0,1,.45-.22h.24A36.24,36.24,0,0,1,92,49.43a.6.6,0,0,1,.13.46.54.54,0,0,1-.28.39,37.2,37.2,0,0,1-6.12,2.81h-.19a.54.54,0,0,1-.25-.06A.5.5,0,0,1,85,52.7a38.93,38.93,0,0,0-6.5-12.31A.57.57,0,0,1,78.48,39.72ZM66.06,37.15a.58.58,0,0,1,.21-.44.59.59,0,0,1,.36-.13h.13c6,1.36,11.5,7.78,14.72,17.18a.57.57,0,0,1-.36.72h0a67.07,67.07,0,0,1-14.44,2h0a.59.59,0,0,1-.4-.16.58.58,0,0,1-.17-.41Zm0,23.48a.57.57,0,0,1,.55-.57,70.52,70.52,0,0,0,15.5-2.15h.14a.6.6,0,0,1,.29.08.53.53,0,0,1,.26.36,57.88,57.88,0,0,1,1.57,11.49.53.53,0,0,1-.16.41.58.58,0,0,1-.41.18H66.63a.58.58,0,0,1-.57-.57Zm0,13.91a.58.58,0,0,1,.57-.57H83.8a.52.52,0,0,1,.41.18.53.53,0,0,1,.16.41A57.88,57.88,0,0,1,82.8,86.05a.53.53,0,0,1-.26.36.6.6,0,0,1-.29.08h-.14a69.34,69.34,0,0,0-15.5-2.15.57.57,0,0,1-.55-.57ZM94.78,91.05a.55.55,0,0,1-.48.27.51.51,0,0,1-.29-.08,41.74,41.74,0,0,0-7.38-3.39.59.59,0,0,1-.37-.67,62.77,62.77,0,0,0,1.68-12.66.57.57,0,0,1,.57-.55h11a.6.6,0,0,1,.42.18.57.57,0,0,1,.15.43A35.71,35.71,0,0,1,94.78,91.05Zm-49.51,4.3L73.74,95,52.68,113.61c-.42.37-.8.22-.85-.34l-.43-4.87a37,37,0,0,1-19.28-.67c-7.43-2.41-12.16-7.86-15-13.84a27.55,27.55,0,0,1,1.56-25.5c1.39-2.23,3.14-4.56,5.08-5.66A32.34,32.34,0,0,0,23,68c-.22.4-.52,1.43-.72,1.84-2.79,5.64-3.41,14.75-.84,20,3.14,6.35,9,9.65,14.71,10.83a30.6,30.6,0,0,0,12.13-.42l-3.38-4.1C44.55,95.72,44.71,95.36,45.27,95.35Z"/><text class="cls-2" transform="translate(124.09 98.05)">G</text><text class="cls-3" transform="translate(226.67 98.05)">F</text><g id="variable-text"><text class="cls-4" transform="translate(165.33 98.05)">eo</text><text class="cls-4" transform="translate(258.14 98.05)">inder</text></g></svg>