<svg id="Capa_1" data-name="Capa 1" xmlns="http://www.w3.org/2000/svg" xmlns:xlink="http://www.w3.org/1999/xlink" viewBox="0 0 2000 2000"><defs><style>.cls-1,.cls-26,.cls-27,.cls-39,.cls-40,.cls-9{fill:#fff;}.cls-1{stroke:#1d1d1b;stroke-miterlimit:10;}.cls-2{fill:#4c3815;}.cls-17,.cls-3{fill:#f0c7b1;}.cls-4{fill:#fde4d7;}.cls-5{fill:#e1ac8f;}.cls-25,.cls-6{fill:none;}.cls-17,.cls-6{stroke:#c27b55;stroke-width:4.5px;}.cls-17,.cls-22,.cls-25,.cls-6{stroke-miterlimit:12;}.cls-7{fill:url(#Degradado_sin_nombre);}.cls-8{fill:#f5f4f5;}.cls-10{fill:#dfdde2;}.cls-11{fill:#b8b6c9;}.cls-12{fill:#1d282e;}.cls-13{fill:#101a20;}.cls-14{fill:#0a0d10;}.cls-15{fill:#2d373d;}.cls-16,.cls-24{fill:#010101;}.cls-18{fill:#c27b55;}.cls-19{fill:#e8b9a1;}.cls-20{fill:url(#Degradado_sin_nombre_2);}.cls-21{fill:url(#Degradado_sin_nombre_3);}.cls-22{fill:#8f9cce;stroke-width:1.5px;}.cls-22,.cls-25{stroke:#4154a0;}.cls-23{fill:#b0b9dc;}.cls-24{opacity:0.9;}.cls-24,.cls-26,.cls-27,.cls-39,.cls-40{isolation:isolate;}.cls-25{stroke-width:2.25px;}.cls-26{opacity:0.5;}.cls-27{opacity:0.8;}.cls-28{fill:url(#Degradado_sin_nombre_4);}.cls-29{fill:url(#Degradado_sin_nombre_5);}.cls-30{fill:url(#Degradado_sin_nombre_6);}.cls-31{fill:url(#Degradado_sin_nombre_7);}.cls-32{fill:url(#Degradado_sin_nombre_8);}.cls-33{fill:url(#Degradado_sin_nombre_9);}.cls-34{fill:url(#Degradado_sin_nombre_10);}.cls-35{fill:#2a232b;}.cls-36{fill:#3d2e15;}.cls-37{fill:#5c4513;}.cls-38{fill:#1d180f;}.cls-39{opacity:0.2;}.cls-40{opacity:0.4;}.cls-41{fill:#25130e;}</style><linearGradient id="Degradado_sin_nombre" x1="500.67" y1="922.48" x2="500.67" y2="817.95" gradientTransform="translate(-502 -1296) scale(3)" gradientUnits="userSpaceOnUse"><stop offset="0" stop-color="#e1ac8f" stop-opacity="0.8"/><stop offset="0.7" stop-color="#c27b55"/></linearGradient><linearGradient id="Degradado_sin_nombre_2" x1="501.62" y1="848.54" x2="501.62" y2="840.9" gradientTransform="translate(-502 -1296) scale(3)" gradientUnits="userSpaceOnUse"><stop offset="0.1" stop-color="#e8b9a1"/><stop offset="1" stop-color="#e1ac8f"/></linearGradient><radialGradient id="Degradado_sin_nombre_3" cx="268.34" cy="703.02" r="27.31" gradientTransform="matrix(-3, 0, 0, 3, 1604, -1296)" gradientUnits="userSpaceOnUse"><stop offset="0" stop-color="#fff"/><stop offset="0.54" stop-color="#feffff"/><stop offset="0.74" stop-color="#f7f9fa"/><stop offset="0.88" stop-color="#eaeff2"/><stop offset="0.99" stop-color="#d9e3e8"/><stop offset="1" stop-color="#d8e2e7"/></radialGradient><radialGradient id="Degradado_sin_nombre_4" cx="486.99" cy="774.93" fx="516.8618167410718" r="42.49" gradientTransform="matrix(3, 0.06, 0.05, -2.4, -681.05, 2647.62)" gradientUnits="userSpaceOnUse"><stop offset="0" stop-color="#e1ac8f"/><stop offset="0.7" stop-color="#e1ac8f" stop-opacity="0.3"/><stop offset="1" stop-color="#f0c7b1" stop-opacity="0"/></radialGradient><radialGradient id="Degradado_sin_nombre_5" cx="259.65" cy="743.42" r="68.52" gradientTransform="matrix(-3, 0, 0, 2.38, 1604, -834.66)" gradientUnits="userSpaceOnUse"><stop offset="0.95" stop-color="#010101" stop-opacity="0"/><stop offset="1" stop-color="#010101" stop-opacity="0.2"/></radialGradient><radialGradient id="Degradado_sin_nombre_6" cx="566.67" cy="703.02" r="27.31" gradientTransform="translate(-502 -1296) scale(3)" xlink:href="#Degradado_sin_nombre_3"/><radialGradient id="Degradado_sin_nombre_7" cx="187.94" cy="767.16" fx="217.81808447370076" r="42.49" gradientTransform="matrix(-3, 0.06, -0.05, -2.4, 1780.65, 2647.65)" xlink:href="#Degradado_sin_nombre_4"/><radialGradient id="Degradado_sin_nombre_8" cx="557.96" cy="743.42" r="68.52" gradientTransform="translate(-502 -834.66) scale(3 2.38)" xlink:href="#Degradado_sin_nombre_5"/><radialGradient id="Degradado_sin_nombre_9" cx="500.66" cy="777.16" r="104.52" gradientTransform="translate(-502 -1296) scale(3)" gradientUnits="userSpaceOnUse"><stop offset="0" stop-color="#fde4d7" stop-opacity="0.5"/><stop offset="0.9" stop-color="#f0c7b1" stop-opacity="0"/></radialGradient><radialGradient id="Degradado_sin_nombre_10" cx="500.67" cy="624.2" r="94.33" gradientTransform="matrix(1, 0, 0, -1, 0, 2000)" xlink:href="#Degradado_sin_nombre_9"/></defs><rect class="cls-1" x="-546.32" y="-255.23" width="3282.58" height="2644.65"/><g id="svga-group-subwrapper"><g id="svga-group-hair-back"><path id="SvgjsPath3415" class="cls-2" d="M1003.82,932.24h-7.65v-7.65h7.65Z"/></g><g id="svga-group-humanbody-single"><path id="SvgjsPath2893" class="cls-3" d="M1729.75,1691.53c-16.79-36.3-62.67-90.09-113.65-105-63-18.38-205.25-40.6-258-53-42.28-9.91-127.43-86.38-157.27-112-5.36-4.59-9.74-14.07-9.85-21.11-1.06-83.09,32.09-303.81,32.09-303.81H776.92s33.15,220.71,32.07,303.81c-.08,7-4.49,16.52-9.83,21.11-29.84,25.66-115,102.13-157.27,112-52.75,12.35-195,35.33-258,53.71-51,14.85-96.86,67.88-113.65,104.18-28.36,61.24-35.06,172.08-35.06,267.68H1764.81C1764.81,1863.61,1758.1,1752.77,1729.75,1691.53Z"/><path id="SvgjsPath2894" class="cls-4" d="M1452.43,1571.3c186.17,27.09,264.51,66.6,289,387.92h23.33c0-95.6-6.71-206.44-35.06-267.69-16.79-36.29-62.67-90.08-113.65-104.94-63-18.38-205.25-40.6-258-52.95-42.28-9.91-139.52-92.31-165.53-125.05,25.7,36,97.83,119.35,161,141.19C1383.84,1560.22,1409,1565,1452.43,1571.3Zm-806-21.52c63.2-21.83,135.32-105.21,161-141.19-26,32.74-123.24,115.14-165.53,125.05-52.74,12.35-195,35.33-258,53.7-51,14.86-96.86,67.89-113.65,104.19-28.35,61.24-35.06,172.08-35.06,267.68h23.33C282.9,1640,361.58,1598.35,547.57,1571.29c43.43-6.29,68.59-11.07,98.82-21.51Z"/><path id="SvgjsPath2895" class="cls-5" d="M966.7,1675s-38.81-12.3-54.18-18.19C832.61,1626.17,573,1606.3,573,1606.3s273.45,10.85,333.79,21.25c-3.5-36.46-23.07-153-23.07-153s39.38,128.6,49,161C937.88,1653,966.7,1675,966.7,1675Zm82.59-10.26c-.68.56-1.46,1.28-2.31,2a18.15,18.15,0,0,0,2.31-2ZM966.7,1675s22.12,22.89,33.24,23.18c14.61.39,36.93-22.18,47-31.39-9.68,7.32-31.81,10.64-40.62,11C996.2,1678.18,966.7,1675,966.7,1675Zm160.74-57.5c-11.81,1.89-33.54,6-33.54,6l17.49-113.88c-4.94,23.49-34.22,124-62.1,155.09,14.61-12.36,47.1-18.29,63.66-20.68,78.29-11.35,78.26-11.34,314-37.78,0,0-222.29-1.14-299.51,11.27Z"/><path id="SvgjsPath2896" class="cls-6" d="M1729.75,1691.53c-16.79-36.3-62.67-90.09-113.65-105-63-18.38-205.25-40.6-258-53-42.28-9.91-127.43-86.38-157.27-112-5.36-4.59-9.74-14.07-9.85-21.11-1.06-83.09,32.09-303.81,32.09-303.81H776.92s33.15,220.71,32.07,303.81c-.08,7-4.49,16.52-9.83,21.11-29.84,25.66-115,102.13-157.27,112-52.75,12.35-195,35.33-258,53.71-51,14.85-96.86,67.88-113.65,104.18-28.36,61.24-35.06,172.08-35.06,267.68H1764.81C1764.81,1863.61,1758.1,1752.77,1729.75,1691.53Z"/></g><g id="svga-group-chinshadow-single"><path id="SvgjsPath3057" class="cls-7" d="M813.4,1408.55c54.5,40.55,118.52,69.5,186.62,69.5s132.07-28.91,186.57-69.44a31.11,31.11,0,0,1-1.34-8.06c-.67-52.48,11.94-157.6,21.57-229.63-119.73-15.07-293.93-15.07-413.64,0,9.63,72,22.24,177.15,21.56,229.63A30.59,30.59,0,0,1,813.4,1408.55Z"/></g><g id="svga-group-clothes-single"><path id="SvgjsPath3392" class="cls-8" d="M562.3,1966.7l10.11-465.4s78-19,127.23-48.29c133.81,167.9,531.17,132.57,599.12-4.74,11.39,4,20.81,9.16,32.6,13.1,38.24,25.9,70.46,34.37,70.46,34.37l7.15,471.78C1299.71,1969,562.3,1966.7,562.3,1966.7Z"/><path id="SvgjsPath3393" class="cls-9" d="M1413.1,1522.71c-32.4-5.5-58.21-13-72.29-27.1-40.86,76.67-204.69,125.26-258.93,132.38,157.2-48,223.24-82.7,249.32-165.07,15.22,18.22,49.88,27.14,94.17,34.7ZM638,1497.29c11.12-2.39,16.67-9.44,27.71-12.19L654,1470.83c-23.81,17.08-68.61,25.27-121.6,33.83l1.44,28.59c30.25-6,59.78-13.68,87.41-25.42,57.23,64.9,146.6,96.82,237.55,110C744.73,1590.45,679.31,1544.17,638,1497.29Z"/><path id="SvgjsPath3394" class="cls-10" d="M1289.56,1464.2c-45.34,86.89-388.06,188.11-581.32,6.63-12,4.7-48,15.94-48,15.94,140.77,176.52,553.3,177.64,663.1-.85C1322.91,1485.73,1300.73,1469.42,1289.56,1464.2Z"/><path id="SvgjsPath3395" class="cls-11" d="M1298.33,1447.27c-77.14,142.06-478.6,162.17-598.38,4.78-43.74,11.9-85.8,37.29-128.15,43.65l-9.5,471,846.66.82-6.54-477.14c-25.76-5.41-49.72-20.93-70.77-29.78C1320,1455.71,1310.13,1451.32,1298.33,1447.27Zm-601.28,9.53c106.34,176.56,526.32,141.14,607.41.76,9.83,3.81,12.35,5.32,23.75,9-84,162.2-499.46,213.9-669.4,8.78,1.19-.27,26.26-14.4,38.24-18.54Zm-46.67,25.47c137.38,206.86,590.89,174.81,685.14-9.84a153.5,153.5,0,0,0,60.69,28.57l12.7,451.85-844.17.12,14.56-445.88c21.29-10.7,55.48-18.59,71.08-24.82Z"/><path id="SvgjsPath3396" class="cls-12" d="M200.55,1965.24c-19.69-105.94-17.53-364,68.93-363.45,100.47-40.62,223.85-87.22,327.35-117.1,52.84-55.42,102.76-108.12,200.29-163,3,19.88,14.34,65.32.09,90-10.37,18-44.23,42.65-73.07,64-15.52,20.8-30,41.1-50.47,69.51,39.52,170.56,73.43,258.36,77.22,406.29,0,0-11.11,5.27,493.08,3,16.94-170.85,38.19-256.68,79.38-413.75,0,0-32.95-38.34-55.12-67.84-15.71-15.27-63.94-57.6-67.61-66.16-9-21-4.19-47.33.84-86.94,82.55,37.27,130,91.94,199.48,162.93,59.11,16.21,236,76.23,324.62,116.38,30.33-.85,47.44,15.28,60.21,41.8,41.34,85.62,31.56,208.77,16.67,327.25C1656.43,1968.47,616.73,1985.15,200.55,1965.24Z"/><path id="SvgjsPath3397" class="cls-13" d="M800.19,1342c1.22,8.18,2.32,16,3.14,23.26-1.66,2-131.64,178.61-132.58,179.92C702.68,1472.56,748.37,1397.28,800.19,1342Zm399.06,0c-1.21,8.18-1.41,16-2.22,23.26,1.66,2,129.49,171.84,130.43,173.17C1293.61,1470.77,1251.07,1397.28,1199.25,1342Zm297.93,237.65c-32.73,47.66-39.72,64.11-75.55,111.33,8.19,0,21.41,1.27,29.6,1.27,28-48,28.07-72.5,46-112.57Zm33.55,345.89c29-68.07,53-127.81,82.13-196l-9.54-15.4c-24.23,70.07-50,141.22-72.59,211.43Zm-981.6-233.29c8.19,0,21.4-1.27,29.6-1.27-35.83-47.22-42.82-50.18-75.55-97.83,17.87,40.1,17.92,51.07,45.95,99.13ZM397,1714.19l-9.54,15.4c29.11,68.17,36.44,127.91,65.46,196C430.3,1855.36,421.26,1784.21,397,1714.19Z"/><path id="SvgjsPath3398" class="cls-14" d="M737.19,1458.3c9-12.59,40.06-55.62,65.78-96.07C810.53,1404,796.66,1428.72,737.19,1458.3Zm459.67-98.84c19.52,33.62,42.54,67.09,66.26,97.92-64.27-29.27-68.59-59.2-66.26-97.92Z"/><path id="SvgjsPath3399" class="cls-15" d="M1201.28,1321.21c.06-.46.13-.9.17-1.33,138.38,76.48,218.56,191.36,311.64,277-3.42,5.52-9.39,9.13-12.9,14.57C1402.71,1537.27,1356.39,1425.13,1201.28,1321.21Zm-417.45,5.07c-115,62.82-277.18,255.12-293.06,269.74,3.43,5.54,5.29,4.42,8.8,9.86,97.48-74.17,124.09-147.58,284.26-279.6Zm941.73,272.9c-7.64-6.11-188.49-76.78-325.73-114.48,257.73,124.66,348.66,141.83,393.66,186-2.93-7.63-8.91-73.16-67.93-71.52ZM598.15,1483.32c-103.43,29.94-235.86,77.23-328.68,118.48-41,.81-70.42,60.65-76.72,123C249.82,1596.22,221.63,1682.67,598.15,1483.32Z"/><path id="SvgjsPath3400" class="cls-16" d="M1815.28,1770.18c-2.6-66-23.36-176.69-89.41-171.78-5.46-4.66-159.25-74.7-323.4-119.39-56.24-57-126.31-134.59-201.69-160.28-5.44,49.16-11.29,81.24,1.65,97.24,17.14,18.65,37.71,37.31,57.88,49.88,35.31,46.93,62.25,74.78,62.25,74.78-41.53,158.34-67.42,239.49-83.92,410.61H761.36C744.86,1780.13,719,1699,677.44,1540.63c0,0,26.93-27.86,62.25-74.78,20.18-12.58,40.74-31.23,57.88-49.88,12.94-16,7.09-48.08,1.65-97.24C723.84,1344.42,653.76,1422,597.53,1479c-164.15,44.7-317.94,114.73-323.4,119.39-66.06-4.91-86.82,105.74-89.41,171.78-3.15,80.21,11,190.73,12.12,198.38H1803.16C1804.31,1960.9,1818.43,1850.39,1815.28,1770.18ZM793.38,1411.73c-17.27,17.08-28,24.33-49.51,40.4,36.93-48,33.2-41.56,59-85.88C804,1385.3,796.81,1408.34,793.38,1411.73ZM210.93,1953.47c-8.28-98.23-22.31-186.69,3.29-282.91,9.79-36.92,19-61.92,57-65.08,8.16,42.35,62.2,219.68,109.35,340.59-47.61-185-40.61-143.86-62.86-217.6-7.37-24.74-14.17-49.61-22.78-74-6-16.93-12.62-33.55-17.3-50.88L586.87,1489.9c-2.14,2.17-98.63,102.75-100.95,105.58,14.13,23.1,59.78,55.23,82.94,89.92-95.11,9-141.55,24.27-175.9,29.37,2.53,7,69.3,193.9,76.29,211.52-11.31-60.55-36.83-155.24-66.05-208.11,10.78-1.37,138.25-19.06,178.91-26.6-11.29-21.82-61.51-64.52-88.4-96.51,157.9-138.9,194.42-209.57,302.81-271.15,1.14,11.54,3.38,23,4.2,34.56-120.8,180-135,180.24-135,180.24,35.07,136.21,80.55,274,80.55,413.56Zm995.69-541.74c-3.43-3.39-10.6-26.43-9.45-45.48,25.75,44.33,22,37.91,58.95,85.88C1234.59,1436.06,1223.88,1428.81,1206.62,1411.73Zm582.45,541.74-535.37-1.17c0-139.57,45.48-277.35,80.55-413.56,0,0-14.18-.26-135-180.24.81-11.54,3-23,4.2-34.56,108.39,61.58,144.9,132.25,302.81,271.15-26.89,32-77.11,74.69-88.4,96.51,40.65,7.53,168.12,25.23,178.91,26.6-29.21,52.87-54.73,147.56-66,208.11,7-17.62,73.76-204.49,76.29-211.52-34.35-5.1-80.79-20.39-175.9-29.37,23.16-34.69,68.81-66.81,82.94-89.92-2.33-2.83-98.81-103.41-101-105.58l309.24,113.69c-4.67,17.34-11.31,34-17.3,50.88-8.61,24.37-15.41,49.24-22.78,74-22.25,73.75-15.25,32.58-62.86,217.6,47.15-120.92,101.18-298.24,109.35-340.59,38,3.16,47.22,28.16,57,65.08,25.62,96.2,11.59,184.67,3.32,282.89Z"/></g><g id="svga-group-head"><g id="svga-group-ears-left"><path id="SvgjsPath3103" class="cls-17" d="M593,803.09c-20.06-11.32-65.58-65.17-85.19-57.5-12.65,4.95-18.17,42.1-20.17,57.14-2.55,19.31-7.11,59-2.51,77.89,5.55,22.83,27.77,65.06,41.07,84.34,11.23,16.23,39.85,44.33,49,61.86,5.81,11.12,11.42,41.09,31.23,39.15,12.8-1.25,42.35-23.49,43.93-34C658.94,974.74,632.45,825.38,593,803.09Z"/><path id="SvgjsPath3104" class="cls-18" d="M566.45,926.58c-1-4.25,0-11.4,1-18.32.88-6.3,1.71-12.24,1.2-16.45-1.92-15.75-12.69-45.7-19.71-61.93-8.1-18.66-21.2-42.18-37.62-48.23-6.8-2.53-11.27.48-13.87,3.52-1.9,2.24-2.33,4.87-1.71,5.17s2-1.86,4.1-3.91a9.2,9.2,0,0,1,7.51-2.82c-1.35,7.85-8.35,50.39-5.3,79.31a118.84,118.84,0,0,0,12.8,42.34,69.34,69.34,0,0,0,1.06,7.86c6.65,33.24,35.55,71,45.61,83.42,1.85,2.28,3.79,3.64,4.28,3.09s-.67-2.81-2.53-5.11c-9.92-12.3-38.56-50-45-82-6.81-34,16.57-84.5,21.79-95.17,2.66,5,4.92,9.83,6.65,13.84,1.37,3.15,2.9,6.83,4.45,10.81-3.08,5.58-24.56,46.21-16.73,78.74,2.91,12,16,27.45,24.65,31.68,4.77,2.34,6.57,5.82,8.64,9.85,2.41,4.69,5.15,10,13.07,13.85a10.16,10.16,0,0,0,4.36,1.1,7.43,7.43,0,0,0,5.2-2.15c.13,2,.12,4.67,0,7.1-.08,3.14.31,5.71,1,5.78s1.39-2.43,1.47-5.55c.12-3.85.1-8.61-.52-10.88-1.77-6.71-7.2-14.28-13-22.29S567.91,933.14,566.45,926.58ZM514.63,897.1c-15.56-52.2,0-100.14,3.51-107.3,6.08,6,16.12,16.93,20.48,24.77C535.44,820.87,515.28,862,514.63,897.1Zm67.15,76.37c-7.17-3.49-9.58-8.16-11.91-12.67-2.1-4.1-4.28-8.32-9.79-11a23.44,23.44,0,0,1-3.86-2.51c-17.78-45.79,1.94-65.81,6.87-69.91a109.07,109.07,0,0,1,3.14,14.84c.47,3.79-.38,9.79-1.19,15.61-1,7.21-2,14.65-1,19.47,1.61,7.19,7.64,15.59,13.46,23.71,5.18,7.21,10.5,14.65,12.31,20.71C589.07,972.91,586.61,975.79,581.78,973.47Z"/></g><g id="svga-group-ears-right"><path id="SvgjsPath3105" class="cls-17" d="M1405.05,803.09c20.06-11.32,65.57-65.17,85.17-57.5,12.67,4.95,18.2,42.1,20.19,57.14,2.55,19.31,7.09,59,2.51,77.89-5.55,22.83-27.77,65.06-41.08,84.34-11.22,16.23-39.86,44.33-49,61.86-5.81,11.12-11.41,41.09-31.23,39.15-12.8-1.25-42.33-23.49-43.93-34C1339.05,974.74,1365.54,825.38,1405.05,803.09Z"/><path id="SvgjsPath3106" class="cls-18" d="M1418.57,949.19c-5.75,8-11.19,15.58-13,22.29-.6,2.27-.63,7-.51,10.88.09,3.11.8,5.6,1.48,5.55s1.06-2.64,1-5.78c-.07-2.42-.07-5,0-7.1a7.39,7.39,0,0,0,5.2,2.15,10.16,10.16,0,0,0,4.36-1.1c7.92-3.85,10.67-9.15,13.07-13.85,2.07-4,3.87-7.51,8.65-9.85,8.67-4.23,21.74-19.69,24.65-31.68,7.82-32.53-13.65-73.16-16.73-78.74,1.55-4,3.07-7.66,4.45-10.81,1.72-4,4-8.83,6.64-13.84,5.22,10.67,28.59,61.13,21.78,95.17-6.4,32.08-35,69.73-45,82-1.85,2.3-3,4.55-2.52,5.11s2.43-.81,4.29-3.09c10-12.37,39-50.18,45.6-83.42a69.36,69.36,0,0,0,1.07-7.86,119.24,119.24,0,0,0,12.8-42.34c3-29-4-71.46-5.32-79.31a9.12,9.12,0,0,1,7.51,2.82c2,2.05,3.47,4.22,4.1,3.91s.17-2.93-1.71-5.17c-2.61-3-7.08-6-13.86-3.52-16.43,6-29.53,29.57-37.63,48.23-7,16.24-17.79,46.18-19.72,61.93-.51,4.21.33,10.16,1.21,16.45,1,6.92,2,14.07,1,18.32C1430.08,933.14,1424.23,941.3,1418.57,949.19Zm40.8-134.62c4.36-7.84,14.4-18.77,20.48-24.77,3.5,7.16,19.08,55.1,3.51,107.3C1482.71,862,1462.55,820.87,1459.37,814.57ZM1408.15,971.7c1.81-6.06,7.13-13.5,12.31-20.71,5.83-8.13,11.84-16.52,13.46-23.71,1.08-4.82,0-12.26-1-19.47-.81-5.81-1.66-11.82-1.2-15.61a110.66,110.66,0,0,1,3.16-14.84c4.93,4.1,24.65,24.12,6.86,69.91a23.78,23.78,0,0,1-3.85,2.51c-5.53,2.7-7.71,6.92-9.8,11-2.33,4.51-4.73,9.18-11.92,12.67C1411.38,975.79,1408.92,972.91,1408.15,971.7Z"/></g><g id="svga-group-faceshape-wrap"><g id="svga-group-faceshape-single"><path id="SvgjsPath3054" class="cls-3" d="M1000,170.24c-257.14-.42-465.13,210.13-465.52,470.35a477.36,477.36,0,0,0,14.93,119.62h0c.09.41,66.64,300.12,111,391.39,46.44,95.5,182.13,250,339.51,250s293.08-154.47,339.52-250c44.39-91.28,111-391,111-391.39h0a477.82,477.82,0,0,0,14.93-119.62C1465.15,380.37,1257.15,169.82,1000,170.24Z"/><path id="SvgjsPath3055" class="cls-19" d="M1158.72,198.11c164,72.58,278.48,238.13,278.78,431.07a476.93,476.93,0,0,1-14.94,119.63h0c-.08.41-66.63,300.11-111,391.4-43.66,89.78-165.26,248.33-311.47,248.33S732.21,1230,688.54,1140.21c-44.4-91.29-110.95-391-111-391.4h0A476.93,476.93,0,0,1,562.6,629.18c.29-192.95,114.79-358.49,278.78-431.07C662.45,263.5,534.8,436.79,534.49,640.59a477.36,477.36,0,0,0,14.93,119.62h0c.09.41,66.64,300.12,111,391.39,46.44,95.5,182.13,250,339.51,250s293.07-154.47,339.52-250c44.39-91.28,111-391,111-391.39h0a477.82,477.82,0,0,0,14.93-119.62C1465.23,436.79,1337.58,263.5,1158.72,198.11Z"/><path id="SvgjsPath3056" class="cls-6" d="M1000,170.24c-257.14-.42-465.13,210.13-465.52,470.35a477.36,477.36,0,0,0,14.93,119.62h0c.09.41,66.64,300.12,111,391.39,46.44,95.5,182.13,250,339.51,250s293.08-154.47,339.52-250c44.39-91.28,111-391,111-391.39h0a477.82,477.82,0,0,0,14.93-119.62C1465.15,380.37,1257.15,169.82,1000,170.24Z"/></g></g><g id="svga-group-mouth-single"><path id="SvgjsPath3085" class="cls-20" d="M971.14,1228.5l63.46-1.58C1027.25,1261.11,976.16,1256.2,971.14,1228.5Z"/><path id="SvgjsPath3089" class="cls-18" d="M972,1230.67a2.1,2.1,0,1,1,.4-4.18l.21,0c.33,0,33,4.18,60.25-1.64a2.1,2.1,0,1,1,1,4.08C1012.49,1233.54,984.81,1232.46,972,1230.67Zm28.6-27.31c-11.49,0-22.64-4-33.83-5.93-12.55-2.2-25-.31-37.59.79-12.82,1.14-40.79-.1-48.68-5.09a6.16,6.16,0,0,1,1.38-11.08c4.7-1.68,12,1.8,16.76,2.65,22,3.94,33.53-.26,52.78-.9,29.46-.89,32.58,11.48,69.33,4,39.5-8,57.29-1.94,85.63-10.47,3.89-1.18,8.51-4.29,12.58-2.19a6.17,6.17,0,0,1-.37,11.2c-26,11.48-54.87,6.84-83.79,11.67-11.3,1.93-22.6,5.35-34.17,5.35Z"/></g><g id="svga-group-eyes-left"><g id="svga-group-eyesback-left"><path id="SvgjsPath3219" class="cls-21" d="M692,819.77c19.71,35.15,16.75,43.63,78.53,34.17,74.11,0,135.45-15.12,135.45-42.51S868.27,757,774.42,773.78C728.4,782,692,806.05,692,819.77Z"/></g><g id="svga-group-eyesiriswrapper-left"><g id="svga-group-eyesiriscontrol-left"><g id="svga-group-eyesiris-left"><path id="SvgjsPath3343" class="cls-22" d="M847.32,820.1a45.41,45.41,0,1,1,.09-.32Z"/><path id="SvgjsPath3344" class="cls-23" d="M846.22,810.79c-3.38,27.12-23.5,41.24-45.53,39.77-20.32-1.37-38.5-16.37-40.18-42.26,7-2,16.37,1.26,24.56,0,0,.3-.13.56-.14.86-.64,10,7.33,18.61,17.81,19.31s19.55-6.82,20.2-16.75a17.92,17.92,0,0,0-.2-3.8C830,809,839,808,846.22,810.79Z"/><path id="SvgjsPath3345" class="cls-24" d="M809.69,792.65a18.32,18.32,0,0,0-22.82,12.27l-.18.66A19.45,19.45,0,0,0,800.24,829a18.35,18.35,0,0,0,22.84-12.3l.16-.58A19.46,19.46,0,0,0,809.69,792.65Z"/><path id="SvgjsPath3346" class="cls-25" d="M809.69,792.65a18.32,18.32,0,0,0-22.82,12.27l-.18.66A19.45,19.45,0,0,0,800.24,829a18.35,18.35,0,0,0,22.84-12.3l.16-.58A19.46,19.46,0,0,0,809.69,792.65Z"/><path id="SvgjsPath3347" class="cls-26" d="M781.34,835.93c-1,3.34-6.17,1.92-5.21-1.44s3.41-5.23,5-8.07c1.69-3,6.36-.32,4.66,2.72-1.3,2.36-3.7,4.16-4.44,6.79Zm8.3-5.33c-1.43,1.67-3.32,7.87-4.13,9.9-1.3,3.23,3.93,4.62,5.21,1.44.44-1.11,2-6.6,2.75-7.52C795.72,831.79,791.91,828,789.64,830.6Zm11.25,16c2.82-3.25,2.53-7,2.47-11-.05-3.48-5.45-3.48-5.4,0,0,2.24.71,5.37-.89,7.21-2.27,2.61,1.53,6.45,3.82,3.81Zm5.51-11.69a34.45,34.45,0,0,0,1.45,9.83c1,3.32,6.23,1.9,5.2-1.44a29.44,29.44,0,0,1-1.25-8.39C811.8,831.43,806.36,831.42,806.4,834.91Z"/><path id="SvgjsPath3348" class="cls-27" d="M835.16,800.09c-5.32,3.19-13.31.32-17.85-6.42s-3.84-14.79,1.48-18,13.32-.33,17.82,6.4S840.48,796.9,835.16,800.09Z"/></g></g></g><g id="svga-group-eyesfront-left"><path id="SvgjsPath3244" class="cls-3" d="M654.3,813.69c0,105.59,65.06,191.2,145.32,191.2s145.31-85.61,145.31-191.2S879.87,622.48,799.62,622.48,654.3,708.09,654.3,813.69Zm37.7,6.08c0-13.72,36.46-37.77,82.46-46C868.26,757,905.92,784,905.92,811.43s-61.33,42.51-135.45,42.51C708.7,863.4,711.66,854.92,692,819.77Z"/><path id="SvgjsPath3245" class="cls-28" d="M684.11,821.69c-.58,52.81,66.13,95.35,137.95,95.1S952,873.48,951.79,820.67s-58.48-95.35-130.32-95.08S684.89,749.46,684.11,821.69Zm7.84-1.92c0-13.72,36.46-37.77,82.46-46C868.26,757,905.92,784,905.92,811.43s-61.33,42.51-135.45,42.51c-61.77,9.46-58.81,1-78.47-34.17Z"/><path id="SvgjsPath3250" class="cls-29" d="M692,819.77c19.71,35.15,16.75,43.63,78.53,34.17,74.11,0,135.45-15.12,135.45-42.51S868.27,757,774.42,773.78C728.4,782,692,806.05,692,819.77Z"/><path id="SvgjsPath3254" class="cls-18" d="M898.4,842.73s-10.58,5.95-18,7.93c-9.25,2.43-38.22,6.84-88.43,13.72,57.28-4.06,80.15-6.27,89.95-9.09C889.7,853.06,898.4,842.73,898.4,842.73Z"/><path id="SvgjsPath3255" class="cls-16" d="M906.36,801.94a1.39,1.39,0,0,1-.08,1.89,1.42,1.42,0,0,1-1.89,0L874.78,778c-87.27-10-152.43,5.25-177.82,40.13l4.1,18.35-23.81-20.57c24.26-34.62,48.23-60.54,197.53-51.51C892.41,781.63,901.62,790.25,906.36,801.94Zm-8.6,30.43a2,2,0,0,0,0-2.83A2,2,0,0,0,896,829c-30.24,17.72-84.29,19.29-173.17,26.2l-17.21-10.59,12.65,15.65C814.48,855.77,885.32,850.07,897.76,832.37Z"/></g></g><g id="svga-group-eyes-right"><g id="svga-group-eyesback-right"><path id="SvgjsPath3227" class="cls-30" d="M1305,819.77c-19.71,35.15-16.74,43.63-78.53,34.17-74.11,0-135.45-15.12-135.45-42.51s37.67-54.42,131.52-37.65C1268.53,782,1305,806.05,1305,819.77Z"/></g><g id="svga-group-eyesiriswrapper-right"><g id="svga-group-eyesiriscontrol-right"><g id="svga-group-eyesiris-right"><path id="SvgjsPath3349" class="cls-22" d="M1241.2,820.1a45.41,45.41,0,1,1,.09-.32Z"/><path id="SvgjsPath3350" class="cls-23" d="M1240.09,810.79c-3.36,27.12-23.49,41.24-45.51,39.77-20.32-1.37-38.5-16.37-40.19-42.26,7-2,16.37,1.26,24.56,0,0,.3-.13.56-.14.86-.65,10,7.33,18.61,17.81,19.31s19.54-6.82,20.19-16.75a18.6,18.6,0,0,0-.2-3.8C1223.91,809,1232.83,808,1240.09,810.79Z"/><path id="SvgjsPath3351" class="cls-24" d="M1203.57,792.65a18.32,18.32,0,0,0-22.82,12.27l-.18.66A19.46,19.46,0,0,0,1194.11,829,18.34,18.34,0,0,0,1217,816.68c.06-.18.11-.37.16-.56A19.46,19.46,0,0,0,1203.57,792.65Z"/><path id="SvgjsPath3352" class="cls-25" d="M1203.57,792.65a18.32,18.32,0,0,0-22.82,12.27l-.18.66A19.46,19.46,0,0,0,1194.11,829,18.34,18.34,0,0,0,1217,816.68c.06-.18.11-.37.16-.56A19.46,19.46,0,0,0,1203.57,792.65Z"/><path id="SvgjsPath3353" class="cls-26" d="M1175.21,835.93c-1,3.34-6.16,1.92-5.21-1.44s3.42-5.23,5-8.07c1.68-3,6.35-.32,4.66,2.72-1.3,2.36-3.7,4.16-4.45,6.79Zm8.31-5.33c-1.44,1.67-3.32,7.87-4.13,9.9-1.31,3.23,3.92,4.62,5.21,1.44.45-1.11,2-6.6,2.74-7.52C1189.59,831.79,1185.79,828,1183.52,830.6Zm11.24,16c2.82-3.25,2.54-7,2.48-11,0-3.48-5.45-3.48-5.4,0,0,2.24.7,5.37-.89,7.21-2.28,2.61,1.53,6.45,3.81,3.81Zm5.52-11.69a34.8,34.8,0,0,0,1.44,9.83c1,3.32,6.24,1.9,5.21-1.44a28.76,28.76,0,0,1-1.25-8.39c0-3.48-5.44-3.49-5.4,0Z"/><path id="SvgjsPath3354" class="cls-27" d="M1229,800.09c-5.31,3.19-13.3.32-17.84-6.42s-3.85-14.79,1.47-18,13.32-.33,17.82,6.4S1234.36,796.9,1229,800.09Z"/></g></g></g><g id="svga-group-eyesfront-right"><path id="SvgjsPath3265" class="cls-3" d="M1197.32,622.48c-80.25,0-145.31,85.61-145.31,191.21s65.06,191.2,145.31,191.2,145.32-85.61,145.32-191.2S1277.58,622.48,1197.32,622.48Zm29.14,231.46c-74.11,0-135.45-15.12-135.45-42.51s37.67-54.42,131.52-37.65c46,8.21,82.46,32.26,82.46,46C1285.28,854.92,1288.24,863.4,1226.46,853.94Z"/><path id="SvgjsPath3266" class="cls-31" d="M1175.47,725.59c-71.84-.28-130.15,42.28-130.33,95.07s57.92,95.82,129.73,96.12,138.53-42.28,138-95.09C1312.05,749.46,1247.31,725.89,1175.47,725.59Zm51,128.35c-74.11,0-135.45-15.12-135.45-42.51s37.67-54.42,131.52-37.65c46,8.21,82.46,32.26,82.46,46-19.72,35.14-16.76,43.62-78.54,34.16Z"/><path id="SvgjsPath3271" class="cls-32" d="M1305,819.77c-19.71,35.15-16.74,43.63-78.53,34.17-74.11,0-135.45-15.12-135.45-42.51s37.67-54.42,131.52-37.65C1268.53,782,1305,806.05,1305,819.77Z"/><path id="SvgjsPath3275" class="cls-18" d="M1098.54,842.73s10.58,5.95,18,7.93c9.24,2.43,38.21,6.84,88.42,13.72-57.28-4.06-80.15-6.27-90-9.09C1107.24,853.06,1098.54,842.73,1098.54,842.73Z"/><path id="SvgjsPath3276" class="cls-16" d="M1122.16,764.4c149.31-9,173.27,16.9,197.53,51.51l-23.81,20.57,4.1-18.35c-25.39-34.88-90.55-50.1-177.82-40.13l-29.61,25.87a1.39,1.39,0,1,1-2-1.94C1095.32,790.25,1104.53,781.63,1122.16,764.4Zm156.52,95.87,12.64-15.65-17.21,10.59c-88.88-6.91-142.93-8.48-173.17-26.21a2,2,0,0,0-1.76,3.38C1111.62,850.07,1182.45,855.77,1278.68,860.27Z"/></g></g><g id="svga-group-facehighlight-single"><path id="SvgjsPath2885" class="cls-33" d="M1313.57,1035.29c.27,173-139.9,313.53-313.1,313.76s-313.79-139.75-314.05-312.8,139.9-314.07,313.09-314.34S1313.32,862.25,1313.57,1035.29Z"/><path id="SvgjsPath2889" class="cls-34" d="M1286.8,576.59c0,158.4-128.4,286.81-286.8,286.81S713.19,735,713.19,576.59,841.6,289.79,1000,289.79,1286.8,418.19,1286.8,576.59Z"/></g><g id="svga-group-eyebrows-left"><path id="SvgjsPath3361" class="cls-35" d="M807.26,708.76c-33.85-3.63-162.54,28.41-162.54,28.41s128.4-51.55,181.69-43.35c39.68,6.11,110.11,38.83,97.18,56.13C913.18,763.88,880.75,716.65,807.26,708.76Z"/></g><g id="svga-group-eyebrows-right"><path id="SvgjsPath3362" class="cls-35" d="M1074.42,747.9c-13.1-17.53,58.06-48.26,103.6-52,54.43-4.52,175.25,31.24,175.25,31.24S1231.66,707,1197.42,711C1122.35,719.76,1085,762,1074.42,747.9Z"/></g><g id="svga-group-nose-single"><path id="SvgjsPath3093" class="cls-5" d="M1005.57,1087.79c-2.71,1.23-9.06,1.23-11.07-.79,0,0-48.16-16.47-42-32.24,9.67-25,97.34-5.82,97.26,0C1049.52,1069.61,1005.57,1087.79,1005.57,1087.79Z"/><path id="SvgjsPath3094" class="cls-18" d="M940.46,1032.5s41.66-142.44,45.95-172.93c8.13,49.49-11.5,159.64-13.57,182.12-2.52,27.3,26.42,43.5,26.42,43.5,2.24,2.84-.46,4.61-3.94,3.49l-50.72-19.57C932.59,1058.9,932.59,1049.18,940.46,1032.5Zm83.83,25.25c7,1.58,8.46,4.41,7.91,7.32s-3.53,7-9.85,3.29c-6.94-4-20-5.87-20-5.87S1017.29,1056.15,1024.29,1057.75Z"/></g><g id="svga-group-hair-front"><path id="SvgjsPath3417" class="cls-2" d="M1405.22,917.74c-34.9-95.11,5.48-241-62.76-348.87-31.08-51.72-58.1-87.26-53.15-147.42l-2.82-.95c-6.59,10.34-15.25,21.56-21,28.75,3.27-8.34,8.59-21.12,13.41-30.76l-2.54-1.67c-19.77,23.5-36.75,35.55-60.11,42.06,25.24-17.74,53.15-48.62,65.36-65.73l-2.07-2.17c-86.57,55.7-184.81,56.45-271.48,57.13-78.21.59-126.8-1.18-183.19-34-40.7,13.49-72.74,11.77-108-12.51-110.24,213.75-61.26,106.75-127.17,503-38.27-51-49.39-83.45-58.44-132.06-2.4-15.5-4.74-39.41-3.29-55.18l-.48-.49c-34-74.73-50.12-117.27-42-265.49,6-61.49,19.37-107.65,57.92-156a240.82,240.82,0,0,1-2.12-78.09c-20.19-36.92-34.08-74.91-39.5-88.49,28.21,21.59,30.54,22.84,54.07,30.27a201.24,201.24,0,0,1,18.26-37.21c2.27,17.12,4.08,28.68,9.2,45.31,1.74.42,10,2.67,12.7,3.38-1.53-10.12-2.92-14.82-2.7-23.9,4.36,10,8,12.27,20.72,27.74,14,2.94,10.66,2.5,14.87,2.5-20.41-32-34.19-60.3-37.68-103.36,27.94,15.92,67,25,107.84,25,95.9,0,194-72,330.17-72,118,0,220,65.45,265.25,140,0-19.23-.86-35.14,6.08-54.9,0,0,.8,28.34.8,50.42l3,.28c4.74-25.25,14.74-46.77,31.26-67.1-14.66,39.45-9.08,18.39-25.49,66.56l2.66,1.43c10.94-14.07,19.9-24,46-37.19-18.87,18.92-33.31,29.75-42.23,43.13l2.3,2c11.14-10.09,22.72-13.92,34.51-4.69-19-6.9-30.18,5.2-43.2,20.46,50.62,8.35,78.09,37.55,113.68,76.6C1505.88,358,1527.45,450.22,1483,581c18.62,40.25,15.75,131-25.81,204.1C1457.19,828,1427.84,880.91,1405.22,917.74Z"/><path id="SvgjsPath3418" class="cls-36" d="M711.66,395.89c2.74,2.55,5.49,5.1,8.21,7.67-1-.65-2-1.25-3-1.93-110.24,213.74-61.26,106.74-127.16,503-38.27-51-49.39-83.46-58.45-132.06-2.39-15.5-4.73-39.42-3.28-55.18l-.48-.5c-34-74.72-50.12-117.27-42-265.48,6-61.49,19.37-107.65,57.93-156a240.31,240.31,0,0,1-2.24-76.81c4.56,6.68,9.35,13.19,14.25,19.61,3.29,20.07,6.08,39.64,1,55.45-73,225.45-30.6,328.87,15.29,489.48-18.84-121.84-54.62-276.75,43-367.11-41.69,100.16-30.18,145.58-20,214.15C601.66,539,634.38,454.2,711.66,395.89ZM1424,263.49c-2.88-3.15-5.68-6.21-8.46-9.23-2.92,1.95-5.92,3.74-8.87,5.63,114.39,234.5,4.55,212,30.73,316.7,30.58,76.49-9.06,122.38-9.06,198.86,0-114.72-5.21-194.56-68.53-284.32-21.38-30.3-27.39-133.25-41.79-184.12C1140.56,416,877.69,438.79,601.7,218.54c130,45.89,395,10.33,486-48.3C984,189.06,767.53,190.18,670.19,150.11,903.39,132,900.57,57.11,1099.42,43,1003.82,7.35,795,98.52,699.1,98.52c-40.81,0-79.89-9.09-107.84-25,3.49,43.06,17.27,71.38,37.68,103.36-4.21,0-.84.44-14.87-2.5-12.68-15.47-16.36-17.79-20.72-27.74-.22,9.08,1.17,13.78,2.7,23.9-2.66-.71-11-3-12.7-3.38-5.12-16.63-6.93-28.2-9.2-45.31a201.24,201.24,0,0,0-18.26,37.21c-23.54-7.43-25.86-8.68-54.07-30.27,5.42,13.58,19.31,51.58,39.5,88.49-.05.42-.06.85-.12,1.27,48.22,70.63,116,126,178.68,185,34.07,22.37,65.46,23.68,105,10.57,56.39,32.78,105,34.55,183.19,34,86.67-.67,184.91-1.44,271.48-57.14l2.07,2.17c-12.21,17.12-40.12,48-65.36,65.74,23.36-6.52,40.34-18.57,60.11-42.07l2.53,1.67c-4.81,9.65-10.14,22.42-13.4,30.77,5.74-7.19,14.4-18.42,21-28.76l2.82.95c-4.94,60.18,22.07,95.71,53.15,147.42,68.24,107.91,27.86,253.78,62.75,348.87,22.63-36.82,52-89.76,52-132.71,41.57-73.12,44.43-163.84,25.81-204.09C1527.45,450.19,1505.87,358,1424,263.49Zm5.6,196.17c-2.52-72.85-50.73-165.3-50.73-165.3-22.53-39.8-42.67-58.79-76.45-66.5,95,4.74,132.36,146.69,128.25,220.84-.44,6.89-1.12,11-1.12,11ZM1213.43,152.08c25.11,20.37,31.11,26.18,55.8,60.49C1141.87-16,891.93,157,812.89,151.38,893.24,168,1074.89,50.49,1213.43,152.08Zm64.72,99.36C1125.49,378,892.38,324.39,701.72,264.64,891.6,351.6,1133.34,398.66,1278.15,251.44ZM677.77,389.11c-50,26.19-73.54,92.16-75.71,135.75C611.4,487.24,639.42,418.22,677.77,389.11Zm-63.09-36.33c-71.58,43.59-85.46,143.56-78.4,227.53,7.53-77.57,21.51-178.77,78.4-227.53ZM1130.5,258c-7.69,1.65-55.51,8.2-81.62,9.14-20.35,1.19-99.71,2.51-171.25-.37,73.85,15.83,118.2,18.77,172.06,15.65,62-2.25,117.47-14.52,163.44-52C1180.74,248.25,1166.94,250.79,1130.5,258Zm256.56,203s-2-3.37-4.5-8.43c-7-11.68-14.87-43.45-45.41-143.29,22.68,185,59.78,151.29,76.41,246.9C1413.57,521.8,1411.17,504.17,1387.06,461Z"/><path id="SvgjsPath3419" class="cls-37" d="M1442.46,684.68c2.79-24.83,1.66-13.45,2-27.61,2.34-47.76-26.21-87.79-8.83-145.22,14.18-41.7,22.37-48.24,16.16-120.84-.91-10.48-3.62-36.52-8.43-45.88,6.55,11.39,10.88,32.47,13.2,45.39,12.9,73,2,84.06-11.64,124.41C1426.61,575.88,1461.7,602.77,1442.46,684.68ZM1318,307c8.54,232.28,55.64,178.33,97.26,319.33C1387,460,1360.84,597.91,1318,307ZM605.12,425.44c-70.29,88.43-63.19,152.19-45.89,283C557.67,576,541.53,525.78,605.12,425.44ZM554.66,299.08c-40.33,124.81-49.17,181.14-29.8,315.75C521.27,479.88,522.13,450.09,554.66,299.08ZM709,398c-73.65,52.92-112.1,149.72-114.35,232.19C606,551.33,648.28,451.92,709,398Zm511.68-46.25c-92.17,33.94-242.19,43-351.72,10.11-85.36-24.94-218.64-108.6-290.34-161.2,65,51.74,179.51,128.54,259.47,158.9,83.08,31,213.29,42.57,314.2,17.17C1223,359,1259.67,342.16,1318,307c-26,14.25-64.21,34.36-97.32,44.7ZM1021.51,74.93c93-17.47,202.74,42.51,260.47,113.42-60.4-86.56-159.36-129.62-218.44-130.65-97-1.68-197.29,81.4-393.41,88.58C854.54,154.4,943.19,87.61,1021.51,74.93Zm73.09,98.12c-132.23,47-234.34,58.23-373.29,65.62C864.82,247.5,967.41,233.58,1094.6,173.05Zm138.94,26.79c-81.55,38.45-117.25,44.75-285.56,55C1053.5,259.1,1152.08,253.62,1233.54,199.84ZM963.65,316.74c81.41,9.46,224-.8,295.38-74.86-86.19,72.61-245.65,70-370,65.07C936.62,314.38,928,313.14,963.65,316.74Zm348.92-71c58.34,21.48,72.57,123.84,95.6,206.5-10.3-73.3-27.9-190.64-95.6-206.53Z"/><path id="SvgjsPath3420" class="cls-38" d="M1425.07,262.46c-33.25-36.48-63.11-68.61-111.89-76.64,16-18.83,27.27-25.84,47.8-14.15-12.16-14.31-26.13-17-43.06-1.68,9.72-14.57,26.52-26.46,48.18-49.18-32.36,15.19-42.08,25.55-54.45,41.46,17.47-51.27,9.94-23.93,28.45-74.57-19.34,21.69-31.71,45.27-37.16,74.34,0-45.15-1.42-39.31-.54-59-10.61,23.63-9.4,44.44-9.4,58.05-17.08-28.16-42.17-52-69.22-71.51C1032.16-50.34,841.08,78.4,737.51,94c-42,7.09-104.88,2.58-148-23.25,3,44.08,16.7,73.36,36.64,104.62L614.91,173c-15.44-18.61-16.93-18-22.63-33.11-1.46,13.48.77,21,1.91,28.6-3.81-1-7.32-2.05-9.64-2.6-5.68-18.46-7.33-32.5-9.41-48.11-4.69,6-14.7,24.33-20.19,39.39-22.93-7.25-24.58-8.4-56.82-33.11,3.82,7.64,17.66,49.41,41.6,93.53A243.17,243.17,0,0,0,541.8,295C503.37,343.24,490,389.38,484,451.29c-8,145.76,6.63,188.23,42.29,266.3.08.08.08.23.16.31-1.36,15.08.91,39,3.36,54.91,9,48.43,20.08,81.79,60.5,135,.15.16.23.39.38.54,26-155.78,23.29-159.59,28.83-198,27.32-196.65,26.14-167.28,98-306.46C746.64,424,778.93,431,824.7,415.8c33.21,19.3,67.12,34,161.07,34,93.09-1.16,200.2,3.16,294.61-57.59-14.31,20.06-46.8,54.72-72.36,70.21,26.61-5.62,45.7-16.34,69.53-44.66-7.32,14.65-15.94,36.82-16.6,39.46,1.15-1.37,16.44-19.65,26.84-35.94-5,60.76,22.14,96.34,53.39,148.37,68.49,108.35,26.82,256.4,63.71,351.54,23.63-38.21,53.84-92.44,53.84-135.76,39.85-69.49,45.55-161.46,25.93-204.58C1524.56,461.3,1516.5,367.87,1425.07,262.46ZM593,144.75c3.74,10.63,4.55,10.4,19,27.61-7.19-1.49-12-2.54-16.29-3.52A115.56,115.56,0,0,1,593,144.75Zm-19.19-20.34a192.62,192.62,0,0,0,7.6,40.59c-21.91-5.64-13.77-3.85-21.42-6.12,6.3-18.88,8.67-23.69,13.85-34.47ZM587,890.9c-32.24-58.16-40.71-77.94-49.63-136.82-.88-6.78-3.61-26.36-3.75-35.72-46.43-106.16-63.88-307.73,9.25-418.66v-.07A130.89,130.89,0,0,1,551.44,288c-2-10.28-4.06-32-3.37-55.68,5.66,10.1,12.09,19.28,17.82,28.07,0,0,4.51,6,4.51,6.12,34.81,44.28,67,81.1,144.71,135.75C621.75,553.5,627.54,502.42,587,890.9Zm899.72-358.61A493.35,493.35,0,0,1,1475,585.75c21.26,54.06-2,156.15-23.41,201.76-9.37,54.24-19.46,65.17-46,119.23-19-84.13,19.75-233.41-51.7-344.78-46.34-76.81-66.21-86.88-55.3-181.79,0,0,.47-5.16.61-6.5-96.58,59.05-203.25,65.73-343.93,62.71-40.67,0-95.6-5.11-129.87-26.31-69.45,19.76-95.22-11-153-56.13-62.43-53.06-104.84-99.38-157.16-208.57,29.39,23.85,88.23,35.86,125.35,42.07-25-33.37-39.76-63.86-46.43-107.08,26.62,17.75,90.4,35.21,146.62,29C844.24,99.64,989.17-6.64,1167.26,74c82.63,36.46,124.56,87.77,134.38,114.72.08,0,.15.08.31.08a7.09,7.09,0,0,0,1.44.3,17.57,17.57,0,0,0,2.75.69c53.36,17.78,56.93,21.1,108.61,81.38,29,35.62,99,106.75,72,261.17Z"/></g><g id="svga-group-glasses-single"><path id="SvgjsPath3365" class="cls-39" d="M1388.67,818.36c.16,47-14.45,93-30.67,112.5-18.58,22.41-62.1,36.41-113.49,36.41-45.36,0-88.11-11.09-114.42-29.6-39.46-27.84-73.65-85.58-86-138.13C1119.46,742.57,1316.86,739.51,1388.67,818.36Zm-777.35,0c-.15,47,14.45,93,30.67,112.5,18.58,22.41,62.1,36.41,113.5,36.41,45.35,0,88.1-11.09,114.41-29.6,39.47-27.84,73.65-85.58,86-138.13-75.37-57-272.76-60-344.58,18.82Z"/><path id="SvgjsPath3366" class="cls-40" d="M1044.13,799.47c-4.36-18.59-6.05-36.64-4.21-52.39,3.36-28.84,17.21-48.34,41.07-57.82,13.46-5.36,51.32-9,94.15-9,30.67,0,133.76,2.29,171.7,32.28,22.79,18,36.86,47.26,40.76,84.66a191.42,191.42,0,0,1,1.07,21C1316.86,739.51,1119.46,742.57,1044.13,799.47Zm-84-52.32c-3.37-28.83-17.21-48.33-41.07-57.81-13.46-5.36-51.32-9-94.15-9-30.67,0-133.76,2.29-171.7,32.27-22.79,18-36.86,47.27-40.76,84.67a191.42,191.42,0,0,0-1.07,21c71.81-78.85,269.21-75.79,344.62-18.89,4.3-18.51,6-36.48,4.15-52.24Z"/><path id="SvgjsPath3367" class="cls-41" d="M1419.8,769.49c-.76-2.76-5.74-6.12-11-8-3.6-1.3-15.22-2.07-22.34-2.45-32.5-91.17-124.58-84.44-325.8-85-5.51-7.65-3.22-5.51-60.65-5.66-57.52.08-55.15-2-60.65,5.66-201.22.53-293.31-6.2-325.81,85-7.11.38-18.74,1.15-22.33,2.45-5.28,1.91-10.25,5.27-11,8s-1.07,13.92-.46,16.06,4.67,7.11,4.67,7.11l.76-.76c1.3,2.44,5.59,7,19.43,7.87C598.7,857,616.9,910.67,637,934.92c43.82,52.92,178.58,49.17,236.71,8.18,55.06-38.78,98.66-129.64,93.38-192.89,13.84-9.25,53.08-9.25,65.93,0-5.28,63.25,38.31,154.11,93.38,192.89,58.12,41,192.88,44.74,236.71-8.18,20.11-24.25,38.31-77.94,32.43-135.15,13.84-.91,18.12-5.43,19.42-7.87a5.53,5.53,0,0,1,.77.76s4-5,4.66-7.11S1420.64,772.24,1419.8,769.49Zm-552.19,165c-58.43,41.23-186.46,37.63-222.72-6.12-30-36.09-52.69-162.67,10.64-212.77,49.94-39.46,231-35.18,262-22.79,22.49,9,35.49,27.38,38.7,54.69,7.06,59.16-36.08,150-88.62,187Zm97.2-199.31c-3.74-16.36-11.47-29.59-22.56-39.38,1.07-4.06,10.18-9.64,11.93-13.46,17.29-.08,74.34-.08,91.63,0,1.76,3.82,10.86,9.4,11.93,13.46-11.09,9.79-18.81,23-22.56,39.38a123.83,123.83,0,0,0-70.37,0ZM1355.1,928.41c-36.25,43.68-164.28,47.27-222.72,6.12-52.54-37-95.6-127.87-88.64-186.92,3.22-27.38,16.22-45.73,38.7-54.68,31-12.39,212.08-16.67,262,22.79C1407.79,765.66,1385.08,892.32,1355.1,928.41Z"/></g></g></g></svg>